<svg id="Layer_1" data-name="Layer 1" xmlns="http://www.w3.org/2000/svg" viewBox="0 0 1542.9 580.97"><title>logo</title><path d="M1195.62,723.59v-581h581v581Zm121.74-373.48-1.26,0a17.29,17.29,0,0,0-.34,3.41c.79,8.86,1.68,17.72,2.51,26.58,2.06,22.06,4.49,44.1,6.06,66.19,1.49,21,2.07,42,3.06,62.93a5.64,5.64,0,0,0,.25,2,1.93,1.93,0,0,0,1.27.9c.25,0,.8-.53.91-.91a6.7,6.7,0,0,0,.18-2,103,103,0,0,1,7.06-39.77c8.31-21.4,22-38.07,43.6-47.37,9.28-4,11-3.41,12.29,6.75a352.63,352.63,0,0,1,3,35.23c.42,15.75-8.26,25.58-23.86,27.73-8.32,1.16-16.75,1.6-25.15,2.11-4.42.27-8.87,0-13.31,0-.65,0-1.3.07-2,.11.43.75.69,1.76,1.34,2.18a4.4,4.4,0,0,0,2.53.32c12.17-.74,24.38-1.12,36.49-2.39,15.29-1.6,24.7-10.65,25.76-25.93.73-10.44-.46-21.05-1.36-31.53a69.13,69.13,0,0,0-3.48-15.21c-1.4-4.34-3.61-5.29-7.62-3.58-5.68,2.43-11.45,4.85-16.67,8.11-17.4,10.89-28.26,26.94-34.84,46.07-1.75,5.07-3,10.32-4.45,15.48C1327.05,441.5,1322.64,395.77,1317.36,350.11Zm168.49,3.72c-1.36.26-2.38.5-3.42.65-10.9,1.62-21.81,3.2-32.7,4.87-.77.11-1.45.82-2.16,1.26.9.31,1.86,1,2.7.87,10.72-1.54,21.41-3.22,32.12-4.82,3.91-.59,3.93-.49,4.66,3.35,2.65,13.87,5.38,27.73,8,41.6,3.52,18.63,7.11,37.24,10.36,55.91,1.48,8.47,2.19,17.07,3.34,25.6a31.32,31.32,0,0,0,1.21,4.38l1.27-.35c-3.44-44.28-15.37-87.15-22.61-131,1.22-.28,2.13-.55,3.06-.69,21.23-3.17,42.49-6.19,63.69-9.55,11.07-1.75,22.05-4.08,33.06-6.22a12.47,12.47,0,0,0,2.79-1.33l-.23-1a12.27,12.27,0,0,0-2.27,0c-10.17,1.93-20.28,4.16-30.48,5.79-22.25,3.55-44.56,6.77-66.83,10.19-2.39.36-3.41-.21-3.74-2.81-1.71-13.53-3.7-27-5.39-40.55-1.41-11.21-3.29-22.42-1.94-33.81a6.19,6.19,0,0,0-.41-1.94l-1.14,0a35.14,35.14,0,0,0-.88,4.69c-.83,16.65,2.66,32.93,4.36,49.36C1483.15,336.71,1484.61,345.1,1485.85,353.83Zm-15.52,75.59.72-1.18c-.82-.75-1.7-2.19-2.45-2.13-2.29.17-5.06.26-6.71,1.56-18,14.15-29.66,31.89-31,55.39-.29,5.25,1.76,7.66,7.15,8.14a27.86,27.86,0,0,0,3.76-.13c7-.33,13.17-3.22,19.1-6.45,8-4.38,15.13-10.09,18-19.27a75.64,75.64,0,0,0,1.94-39.24,20.93,20.93,0,0,0-1.51-3.33c-.66,1.76-1,2.65-1.32,3.5-5.49-1-5.56-1-6,1.73a10.62,10.62,0,0,0,1.37.09c4.22-.26,6.2,1,6.38,5.11.27,6.16.11,12.36-.23,18.52-.69,12.2-5.36,22.31-16.18,28.87-7.33,4.44-14.91,8.24-23.79,8.32-5.12.05-6.49-1.27-6.25-6.25,1-21.85,12.14-38.25,28.1-52C1464,428.4,1466.73,426.59,1470.33,429.42Zm-102.82-83.13c7.92-.56,16.58-3.43,23-10.07a73.13,73.13,0,0,0,12.58-18.3c2.09-4.26,1.73-9.74,2.33-14.68.06-.51-.8-1.12-1.23-1.69-.3.59-.86,1.19-.85,1.77.11,6.58-.76,12.84-4.68,18.45-5.3,7.6-10.06,15.36-19.38,19.23-15.23,6.33-32.27,1.93-41.22-11.43-.35-.52-1.11-.77-1.68-1.15-.07.78-.47,1.76-.14,2.28a29.42,29.42,0,0,0,4.44,6C1347.79,343.37,1356.55,345.92,1367.51,346.29ZM1341,292.46c1.75,3.92,3.1,7.21,4.71,10.37.38.75,1.63,1.05,2.48,1.56.33-.92,1.18-2.06.9-2.72-1.6-3.78-3.45-7.45-5.29-11.13a1.34,1.34,0,0,0-1.21-.53c-1.31.6-3.09,1.06-3.69,2.14-.89,1.58-1.26,3.69.88,6Zm35.63-11.22c-.52-.78-.87-1.83-1.55-2.16a2.52,2.52,0,0,0-2.25.63,8.74,8.74,0,0,0-2.43,3.73c-.23,1.12.72,2.47,1.15,3.72,1.1-.59,2.48-1,3.23-1.84C1375.63,284.28,1376,282.77,1376.61,281.24Z" transform="translate(-233.68 -142.63)" style="fill:#fff"/><path d="M1317.36,350.11c5.28,45.66,9.69,91.39,12,137.34,1.47-5.16,2.7-10.41,4.45-15.48,6.58-19.13,17.44-35.18,34.84-46.07,5.22-3.26,11-5.68,16.67-8.11,4-1.71,6.22-.76,7.62,3.58a69.13,69.13,0,0,1,3.48,15.21c.9,10.48,2.09,21.09,1.36,31.53-1.06,15.28-10.47,24.33-25.76,25.93-12.11,1.27-24.32,1.65-36.49,2.39a4.4,4.4,0,0,1-2.53-.32c-.65-.42-.91-1.43-1.34-2.18.65,0,1.3-.11,2-.11,4.44,0,8.89.3,13.31,0,8.4-.51,16.83-1,25.15-2.11,15.6-2.15,24.28-12,23.86-27.73a352.63,352.63,0,0,0-3-35.23c-1.3-10.16-3-10.74-12.29-6.75-21.61,9.3-35.29,26-43.6,47.37a103,103,0,0,0-7.06,39.77,6.7,6.7,0,0,1-.18,2c-.11.38-.66.95-.91.91a1.93,1.93,0,0,1-1.27-.9,5.64,5.64,0,0,1-.25-2c-1-21-1.57-42-3.06-62.93-1.57-22.09-4-44.13-6.06-66.19-.83-8.86-1.72-17.72-2.51-26.58a17.29,17.29,0,0,1,.34-3.41Z" transform="translate(-233.68 -142.63)"/><path d="M1485.85,353.83c-1.24-8.73-2.7-17.12-3.58-25.56-1.7-16.43-5.19-32.71-4.36-49.36a35.14,35.14,0,0,1,.88-4.69l1.14,0a6.19,6.19,0,0,1,.41,1.94c-1.35,11.39.53,22.6,1.94,33.81,1.69,13.53,3.68,27,5.39,40.55.33,2.6,1.35,3.17,3.74,2.81,22.27-3.42,44.58-6.64,66.83-10.19,10.2-1.63,20.31-3.86,30.48-5.79a12.27,12.27,0,0,1,2.27,0l.23,1a12.47,12.47,0,0,1-2.79,1.33c-11,2.14-22,4.47-33.06,6.22-21.2,3.36-42.46,6.38-63.69,9.55-.93.14-1.84.41-3.06.69,7.24,43.82,19.17,86.69,22.61,131l-1.27.35a31.32,31.32,0,0,1-1.21-4.38c-1.15-8.53-1.86-17.13-3.34-25.6-3.25-18.67-6.84-37.28-10.36-55.91-2.62-13.87-5.35-27.73-8-41.6-.73-3.84-.75-3.94-4.66-3.35-10.71,1.6-21.4,3.28-32.12,4.82-.84.12-1.8-.56-2.7-.87.71-.44,1.39-1.15,2.16-1.26,10.89-1.67,21.8-3.25,32.7-4.87C1483.47,354.33,1484.49,354.09,1485.85,353.83Z" transform="translate(-233.68 -142.63)"/><path d="M1470.33,429.42c-3.6-2.83-6.35-1-8.95,1.22-16,13.78-27.07,30.18-28.1,52-.24,5,1.13,6.3,6.25,6.25,8.88-.08,16.46-3.88,23.79-8.32,10.82-6.56,15.49-16.67,16.18-28.87.34-6.16.5-12.36.23-18.52-.18-4.14-2.16-5.37-6.38-5.11A10.62,10.62,0,0,1,1472,428c.47-2.73.54-2.75,6-1.73.32-.85.66-1.74,1.32-3.5a20.93,20.93,0,0,1,1.51,3.33,75.64,75.64,0,0,1-1.94,39.24c-2.84,9.18-9.92,14.89-18,19.27-5.93,3.23-12.12,6.12-19.1,6.45a27.86,27.86,0,0,1-3.76.13c-5.39-.48-7.44-2.89-7.15-8.14,1.31-23.5,13-41.24,31-55.39,1.65-1.3,4.42-1.39,6.71-1.56.75-.06,1.63,1.38,2.45,2.13Z" transform="translate(-233.68 -142.63)"/><path d="M1367.51,346.29c-11-.37-19.72-2.92-26.87-9.55a29.42,29.42,0,0,1-4.44-6c-.33-.52.07-1.5.14-2.28.57.38,1.33.63,1.68,1.15,9,13.36,26,17.76,41.22,11.43,9.32-3.87,14.08-11.63,19.38-19.23,3.92-5.61,4.79-11.87,4.68-18.45,0-.58.55-1.18.85-1.77.43.57,1.29,1.18,1.23,1.69-.6,4.94-.24,10.42-2.33,14.68a73.13,73.13,0,0,1-12.58,18.3C1384.09,342.86,1375.43,345.73,1367.51,346.29Z" transform="translate(-233.68 -142.63)"/><path d="M1341,292.46l-1.22,5.73c-2.14-2.35-1.77-4.46-.88-6,.6-1.08,2.38-1.54,3.69-2.14a1.34,1.34,0,0,1,1.21.53c1.84,3.68,3.69,7.35,5.29,11.13.28.66-.57,1.8-.9,2.72-.85-.51-2.1-.81-2.48-1.56C1344.08,299.67,1342.73,296.38,1341,292.46Z" transform="translate(-233.68 -142.63)"/><path d="M1376.61,281.24c-.66,1.53-1,3-1.85,4.08-.75.89-2.13,1.25-3.23,1.84-.43-1.25-1.38-2.6-1.15-3.72a8.74,8.74,0,0,1,2.43-3.73,2.52,2.52,0,0,1,2.25-.63C1375.74,279.41,1376.09,280.46,1376.61,281.24Z" transform="translate(-233.68 -142.63)"/><text transform="translate(0.33 256.67)" style="font-size:108.94615936279297px;fill:#fff;font-family:NexaBold, Nexa Bold"><tspan style="letter-spacing:0.01998908807558878em">S</tspan><tspan x="74.19" y="0">ound</tspan><tspan x="333.59" y="0" style="letter-spacing:-0.08299057038019673em">W</tspan><tspan x="443.19" y="0" style="letter-spacing:-0.030992050233788437em">a</tspan><tspan x="506.38" y="0" style="letter-spacing:-0.000004481858312912283em">ve</tspan></text><text transform="translate(0.33 333.37)" style="font-size:41.502933502197266px;fill:#fff;font-family:NexaLight, Nexa Light">A <tspan x="40.22" y="0" style="letter-spacing:-0.020988727217411806em">m</tspan><tspan x="77.48" y="0">usic b</tspan><tspan x="188.05" y="0" style="letter-spacing:-0.009988469398869182em">o</tspan><tspan x="212.2" y="0">t </tspan><tspan x="239.97" y="0" style="letter-spacing:-0.04098919597839839em">f</tspan><tspan x="253.91" y="0" style="letter-spacing:0.000011764981624109755em">ocused on ef</tspan><tspan x="505.75" y="0" style="letter-spacing:-0.009988469398869182em">f</tspan><tspan x="520.98" y="0">iciency,</tspan><tspan x="0" y="49.8">n</tspan><tspan x="23.86" y="49.8" style="letter-spacing:-0.021000492199035915em">o</tspan><tspan x="47.56" y="49.8" style="letter-spacing:0.000011764981624109755em">w with </tspan><tspan x="181.33" y="49.8" style="letter-spacing:-0.020988727217411806em">m</tspan><tspan x="218.59" y="49.8" style="letter-spacing:-0.000011764981624109755em">usic effects and </tspan><tspan x="539.45" y="49.8" style="letter-spacing:-0.023988797531559792em">a</tspan><tspan x="563.69" y="49.8">utopl</tspan><tspan x="662.01" y="49.8" style="letter-spacing:-0.021012257180660025em">a</tspan><tspan x="686.37" y="49.8">y</tspan></text></svg>