<svg xmlns="http://www.w3.org/2000/svg" viewBox="0 0 1542.9 580.97"><title>logo</title><path d="M1195.62,723.59v-581h581v581Zm121.74-373.48-1.26,0a17.29,17.29,0,0,0-.34,3.41c.79,8.86,1.68,17.72,2.51,26.58,2.06,22.06,4.49,44.1,6.06,66.19,1.49,21,2.07,42,3.06,62.93a5.64,5.64,0,0,0,.25,2,1.93,1.93,0,0,0,1.27.9c.25,0,.8-.53.91-.91a6.7,6.7,0,0,0,.18-2,103,103,0,0,1,7.06-39.77c8.31-21.4,22-38.07,43.6-47.37,9.28-4,11-3.41,12.29,6.75a352.63,352.63,0,0,1,3,35.23c.42,15.75-8.26,25.58-23.86,27.73-8.32,1.16-16.75,1.6-25.15,2.11-4.42.27-8.87,0-13.31,0-.65,0-1.3.07-2,.11.43.75.69,1.76,1.34,2.18a4.4,4.4,0,0,0,2.53.32c12.17-.74,24.38-1.12,36.49-2.39,15.29-1.6,24.7-10.65,25.76-25.93.73-10.44-.46-21.05-1.36-31.53a69.13,69.13,0,0,0-3.48-15.21c-1.4-4.34-3.61-5.29-7.62-3.58-5.68,2.43-11.45,4.85-16.67,8.11-17.4,10.89-28.26,26.94-34.84,46.07-1.75,5.07-3,10.32-4.45,15.48C1327.05,441.5,1322.64,395.77,1317.36,350.11Zm168.49,3.72c-1.36.26-2.38.5-3.42.65-10.9,1.62-21.81,3.2-32.7,4.87-.77.11-1.45.82-2.16,1.26.9.31,1.86,1,2.7.87,10.72-1.54,21.41-3.22,32.12-4.82,3.91-.59,3.93-.49,4.66,3.35,2.65,13.87,5.38,27.73,8,41.6,3.52,18.63,7.11,37.24,10.36,55.91,1.48,8.47,2.19,17.07,3.34,25.6a31.32,31.32,0,0,0,1.21,4.38l1.27-.35c-3.44-44.28-15.37-87.15-22.61-131,1.22-.28,2.13-.55,3.06-.69,21.23-3.17,42.49-6.19,63.69-9.55,11.07-1.75,22.05-4.08,33.06-6.22a12.47,12.47,0,0,0,2.79-1.33l-.23-1a12.27,12.27,0,0,0-2.27,0c-10.17,1.93-20.28,4.16-30.48,5.79-22.25,3.55-44.56,6.77-66.83,10.19-2.39.36-3.41-.21-3.74-2.81-1.71-13.53-3.7-27-5.39-40.55-1.41-11.21-3.29-22.42-1.94-33.81a6.19,6.19,0,0,0-.41-1.94l-1.14,0a35.14,35.14,0,0,0-.88,4.69c-.83,16.65,2.66,32.93,4.36,49.36C1483.15,336.71,1484.61,345.1,1485.85,353.83Zm-15.52,75.59.72-1.18c-.82-.75-1.7-2.19-2.45-2.13-2.29.17-5.06.26-6.71,1.56-18,14.15-29.66,31.89-31,55.39-.29,5.25,1.76,7.66,7.15,8.14a27.86,27.86,0,0,0,3.76-.13c7-.33,13.17-3.22,19.1-6.45,8-4.38,15.13-10.09,18-19.27a75.64,75.64,0,0,0,1.94-39.24,20.93,20.93,0,0,0-1.51-3.33c-.66,1.76-1,2.65-1.32,3.5-5.49-1-5.56-1-6,1.73a10.62,10.62,0,0,0,1.37.09c4.22-.26,6.2,1,6.38,5.11.27,6.16.11,12.36-.23,18.52-.69,12.2-5.36,22.31-16.18,28.87-7.33,4.44-14.91,8.24-23.79,8.32-5.12.05-6.49-1.27-6.25-6.25,1-21.85,12.14-38.25,28.1-52C1464,428.4,1466.73,426.59,1470.33,429.42Zm-102.82-83.13c7.92-.56,16.58-3.43,23-10.07a73.13,73.13,0,0,0,12.58-18.3c2.09-4.26,1.73-9.74,2.33-14.68.06-.51-.8-1.12-1.23-1.69-.3.59-.86,1.19-.85,1.77.11,6.58-.76,12.84-4.68,18.45-5.3,7.6-10.06,15.36-19.38,19.23-15.23,6.33-32.27,1.93-41.22-11.43-.35-.52-1.11-.77-1.68-1.15-.07.78-.47,1.76-.14,2.28a29.42,29.42,0,0,0,4.44,6C1347.79,343.37,1356.55,345.92,1367.51,346.29ZM1341,292.46c1.75,3.92,3.1,7.21,4.71,10.37.38.75,1.63,1.05,2.48,1.56.33-.92,1.18-2.06.9-2.72-1.6-3.78-3.45-7.45-5.29-11.13a1.34,1.34,0,0,0-1.21-.53c-1.31.6-3.09,1.06-3.69,2.14-.89,1.58-1.26,3.69.88,6Zm35.63-11.22c-.52-.78-.87-1.83-1.55-2.16a2.52,2.52,0,0,0-2.25.63,8.74,8.74,0,0,0-2.43,3.73c-.23,1.12.72,2.47,1.15,3.72,1.1-.59,2.48-1,3.23-1.84C1375.63,284.28,1376,282.77,1376.61,281.24Z" transform="translate(-233.68 -142.63)" style="fill:#fff"/><path d="M1317.36,350.11c5.28,45.66,9.69,91.39,12,137.34,1.47-5.16,2.7-10.41,4.45-15.48,6.58-19.13,17.44-35.18,34.84-46.07,5.22-3.26,11-5.68,16.67-8.11,4-1.71,6.22-.76,7.62,3.58a69.13,69.13,0,0,1,3.48,15.21c.9,10.48,2.09,21.09,1.36,31.53-1.06,15.28-10.47,24.33-25.76,25.93-12.11,1.27-24.32,1.65-36.49,2.39a4.4,4.4,0,0,1-2.53-.32c-.65-.42-.91-1.43-1.34-2.18.65,0,1.3-.11,2-.11,4.44,0,8.89.3,13.31,0,8.4-.51,16.83-1,25.15-2.11,15.6-2.15,24.28-12,23.86-27.73a352.63,352.63,0,0,0-3-35.23c-1.3-10.16-3-10.74-12.29-6.75-21.61,9.3-35.29,26-43.6,47.37a103,103,0,0,0-7.06,39.77,6.7,6.7,0,0,1-.18,2c-.11.38-.66.95-.91.91a1.93,1.93,0,0,1-1.27-.9,5.64,5.64,0,0,1-.25-2c-1-21-1.57-42-3.06-62.93-1.57-22.09-4-44.13-6.06-66.19-.83-8.86-1.72-17.72-2.51-26.58a17.29,17.29,0,0,1,.34-3.41Z" transform="translate(-233.68 -142.63)"/><path d="M1485.85,353.83c-1.24-8.73-2.7-17.12-3.58-25.56-1.7-16.43-5.19-32.71-4.36-49.36a35.14,35.14,0,0,1,.88-4.69l1.14,0a6.19,6.19,0,0,1,.41,1.94c-1.35,11.39.53,22.6,1.94,33.81,1.69,13.53,3.68,27,5.39,40.55.33,2.6,1.35,3.17,3.74,2.81,22.27-3.42,44.58-6.64,66.83-10.19,10.2-1.63,20.31-3.86,30.48-5.79a12.27,12.27,0,0,1,2.27,0l.23,1a12.47,12.47,0,0,1-2.79,1.33c-11,2.14-22,4.47-33.06,6.22-21.2,3.36-42.46,6.38-63.69,9.55-.93.14-1.84.41-3.06.69,7.24,43.82,19.17,86.69,22.61,131l-1.27.35a31.32,31.32,0,0,1-1.21-4.38c-1.15-8.53-1.86-17.13-3.34-25.6-3.25-18.67-6.84-37.28-10.36-55.91-2.62-13.87-5.35-27.73-8-41.6-.73-3.84-.75-3.94-4.66-3.35-10.71,1.6-21.4,3.28-32.12,4.82-.84.12-1.8-.56-2.7-.87.71-.44,1.39-1.15,2.16-1.26,10.89-1.67,21.8-3.25,32.7-4.87C1483.47,354.33,1484.49,354.09,1485.85,353.83Z" transform="translate(-233.68 -142.63)"/><path d="M1470.33,429.42c-3.6-2.83-6.35-1-8.95,1.22-16,13.78-27.07,30.18-28.1,52-.24,5,1.13,6.3,6.25,6.25,8.88-.08,16.46-3.88,23.79-8.32,10.82-6.56,15.49-16.67,16.18-28.87.34-6.16.5-12.36.23-18.52-.18-4.14-2.16-5.37-6.38-5.11A10.62,10.62,0,0,1,1472,428c.47-2.73.54-2.75,6-1.73.32-.85.66-1.74,1.32-3.5a20.93,20.93,0,0,1,1.51,3.33,75.64,75.64,0,0,1-1.94,39.24c-2.84,9.18-9.92,14.89-18,19.27-5.93,3.23-12.12,6.12-19.1,6.45a27.86,27.86,0,0,1-3.76.13c-5.39-.48-7.44-2.89-7.15-8.14,1.31-23.5,13-41.24,31-55.39,1.65-1.3,4.42-1.39,6.71-1.56.75-.06,1.63,1.38,2.45,2.13Z" transform="translate(-233.68 -142.63)"/><path d="M1367.51,346.29c-11-.37-19.72-2.92-26.87-9.55a29.42,29.42,0,0,1-4.44-6c-.33-.52.07-1.5.14-2.28.57.38,1.33.63,1.68,1.15,9,13.36,26,17.76,41.22,11.43,9.32-3.87,14.08-11.63,19.38-19.23,3.92-5.61,4.79-11.87,4.68-18.45,0-.58.55-1.18.85-1.77.43.57,1.29,1.18,1.23,1.69-.6,4.94-.24,10.42-2.33,14.68a73.13,73.13,0,0,1-12.58,18.3C1384.09,342.86,1375.43,345.73,1367.51,346.29Z" transform="translate(-233.68 -142.63)"/><path d="M1341,292.46l-1.22,5.73c-2.14-2.35-1.77-4.46-.88-6,.6-1.08,2.38-1.54,3.69-2.14a1.34,1.34,0,0,1,1.21.53c1.84,3.68,3.69,7.35,5.29,11.13.28.66-.57,1.8-.9,2.72-.85-.51-2.1-.81-2.48-1.56C1344.08,299.67,1342.73,296.38,1341,292.46Z" transform="translate(-233.68 -142.63)"/><path d="M1376.61,281.24c-.66,1.53-1,3-1.85,4.08-.75.89-2.13,1.25-3.23,1.84-.43-1.25-1.38-2.6-1.15-3.72a8.74,8.74,0,0,1,2.43-3.73,2.52,2.52,0,0,1,2.25-.63C1375.74,279.41,1376.09,280.46,1376.61,281.24Z" transform="translate(-233.68 -142.63)"/><path d="M286.41,341.45c-2.61-4.36-9.8-8.5-18.08-8.5-10.68,0-15.8,4.47-15.8,10.13,0,6.65,7.84,8.5,17,9.59,15.9,2,30.72,6.1,30.72,24.29,0,17-15,24.3-32,24.3-15.58,0-27.57-4.79-33.23-18.74l12-6.21c3.38,8.39,12.21,12.09,21.47,12.09,9,0,17.54-3.16,17.54-11.44,0-7.19-7.52-10.13-17.65-11.22-15.58-1.85-30-6-30-23.09,0-15.69,15.47-22.12,29.52-22.23,11.88,0,24.19,3.38,30,15.14Z" transform="translate(-233.68 -142.63)" style="fill:#fff"/><path d="M365.94,372.5c0,15.47-10.57,28-28,28s-27.89-12.53-27.89-28,10.68-28,27.78-28S365.94,357.14,365.94,372.5Zm-42.6,0c0,8.17,4.91,15.79,14.6,15.79s14.6-7.62,14.6-15.79-5.66-15.91-14.6-15.91C328.35,356.59,323.34,364.44,323.34,372.5Z" transform="translate(-233.68 -142.63)" style="fill:#fff"/><path d="M388.71,345.59V373.7c0,8.17,4.47,14.38,13,14.38,8.18,0,13.73-6.87,13.73-15V345.59h13.18v53.82H416.71l-.87-7.3c-5.56,5.45-10.68,8.06-18.2,8.06-12.85,0-22.22-9.7-22.22-26.36V345.59Z" transform="translate(-233.68 -142.63)" style="fill:#fff"/><path d="M479.9,399.3V371.19c0-8.17-4.47-14.38-13-14.38-8.17,0-13.72,6.86-13.72,15V399.3H440V345.48H451.9l.87,7.3c5.45-5.34,10.89-8.06,17.65-8.06,12.64,0,22.77,9.47,22.77,26.36V399.3Z" transform="translate(-233.68 -142.63)" style="fill:#fff"/><path d="M560.41,323.14V399.3H548l-.87-7.41c-4.14,6.43-10.79,8.61-17.33,8.61-15.79,0-27.67-10.46-27.67-28.11,0-18.52,11.66-28.11,27.35-28.11,5.66,0,14.49,3.05,17.65,8.61V323.14Zm-45,49.25c0,9.37,6.76,15.8,15.26,15.8s15.58-6.11,15.58-15.8a15.33,15.33,0,0,0-15.58-15.69C522.17,356.7,515.41,362.69,515.41,372.39Z" transform="translate(-233.68 -142.63)" style="fill:#fff"/><path d="M655.3,399.3H643.1l-9.48-24-8.06-24.08-8,24.3-9.26,23.75h-12.2l-28-76.26h16.13l18,55,18.52-55h9.37l19.07,55,17.43-55h16.13Z" transform="translate(-233.68 -142.63)" style="fill:#fff"/><path d="M724.15,345.59H736.9V399.3H724.37l-.65-7.85c-3.05,6.32-11.44,9.37-17.43,9.48-15.91.11-27.68-9.69-27.68-28.54,0-18.52,12.31-28.22,28-28.11,7.19,0,14.06,3.38,17.11,8.72Zm-32.24,26.8c0,10.24,7.08,16.34,15.9,16.34,20.92,0,20.92-32.57,0-32.57C699,356.16,691.91,362.15,691.91,372.39Z" transform="translate(-233.68 -142.63)" style="fill:#fff"/><path d="M800.42,345.48l-22.88,54H763.16l-23-54h14.49l7.41,17.76,8.28,22.66,8.17-22.44,7.41-18Z" transform="translate(-233.68 -142.63)" style="fill:#fff"/><path d="M818.17,377.18c.87,6.65,6.65,11.44,16,11.44,4.9,0,11.33-1.85,14.38-5l8.5,8.39c-5.67,5.88-14.93,8.72-23.1,8.72-18.52,0-29.52-11.44-29.52-28.66,0-16.34,11.11-28.11,28.54-28.11,18,0,29.2,11.12,27.13,33.23Zm29.2-11c-.87-7-6.32-10.46-13.94-10.46-7.2,0-13.08,3.49-15,10.46Z" transform="translate(-233.68 -142.63)" style="fill:#fff"/><path d="M259.78,476l-3.19-7.14H239.24L236.08,476h-2.4l13-29.05h2.45l13,29.05Zm-4.07-9.21-7.8-17.68-7.8,17.68Z" transform="translate(-233.68 -142.63)" style="fill:#fff"/><path d="M306.89,476V463.72a6.35,6.35,0,0,0-6.56-6.73,6.48,6.48,0,0,0-6.6,6.85V476h-2V463.84a6.45,6.45,0,0,0-6.6-6.81c-3.9,0-6.56,2.87-6.56,6.81V476h-2V455.5h1.91l0,3.4a7.21,7.21,0,0,1,6.68-3.82c3.11,0,6.39,1.41,7.59,5.07a7.93,7.93,0,0,1,7.6-5.07,8.25,8.25,0,0,1,8.59,8.64V476Z" transform="translate(-233.68 -142.63)" style="fill:#fff"/><path d="M330.29,476v-3.69a8.14,8.14,0,0,1-7.3,4c-5.48,0-9.26-3.36-9.26-9.05V455.46h2v11.78c0,4.65,2.86,7.14,7.3,7.1a7.12,7.12,0,0,0,7.18-7.47V455.46h2V476Z" transform="translate(-233.68 -142.63)" style="fill:#fff"/><path d="M351.71,459.23a8.8,8.8,0,0,0-6.39-2.16c-3.2,0-6.27,1.17-6.19,3.78s3.66,3.28,6.23,3.74c3.65.62,8.67,1.24,8.47,6-.13,4.53-4.82,5.73-8.43,5.73s-7.18-1.37-9-4.11l1.49-1.32a9.11,9.11,0,0,0,7.51,3.48c2.49,0,6.27-.66,6.39-3.9.09-3-3.32-3.53-6.68-4.07-4-.66-7.92-1.41-8-5.52s4-5.77,8.14-5.72A10.79,10.79,0,0,1,353,457.9Z" transform="translate(-233.68 -142.63)" style="fill:#fff"/><path d="M361.05,448.82a1.64,1.64,0,0,1-3.28,0A1.64,1.64,0,0,1,361.05,448.82Zm-2.7,6.59V476h2V455.41Z" transform="translate(-233.68 -142.63)" style="fill:#fff"/><path d="M383,473.14a10.49,10.49,0,0,1-7.47,3.07c-5.77,0-10.54-4-10.54-10.46s4.61-10.46,10.54-10.46a10.66,10.66,0,0,1,7.47,3.07l-1.33,1.29a8.69,8.69,0,0,0-6.14-2.45c-4.65,0-8.55,3-8.55,8.55s3.9,8.55,8.55,8.55a8.68,8.68,0,0,0,6.1-2.53Z" transform="translate(-233.68 -142.63)" style="fill:#fff"/><path d="M400.56,447v13c1.66-3.32,5-4.81,8.51-4.81,5.72,0,10.29,3.81,10.29,10.58s-4.53,10.58-10.25,10.58a9.65,9.65,0,0,1-8.55-4.85V476h-2V447Zm0,18.76c0,5.1,3.57,8.63,8.38,8.63,4.61,0,8.39-2.9,8.39-8.59s-3.78-8.63-8.39-8.63A8.2,8.2,0,0,0,400.6,465.71Z" transform="translate(-233.68 -142.63)" style="fill:#fff"/><path d="M423.38,465.79c0-6.52,4.65-10.67,10.42-10.67s10.42,4.15,10.42,10.67-4.65,10.5-10.42,10.5S423.38,472.31,423.38,465.79Zm18.85,0c0-5.31-3.78-8.76-8.43-8.76s-8.42,3.45-8.42,8.76a8.43,8.43,0,1,0,16.85,0Z" transform="translate(-233.68 -142.63)" style="fill:#fff"/><path d="M453.18,449.31v6.19h7v1.7h-7v12.49c0,2.78.58,4.73,3.78,4.73a7.51,7.51,0,0,0,3.15-.83l.71,1.66a8.86,8.86,0,0,1-3.86,1c-4.36,0-5.77-2.57-5.77-6.6V457.2h-4.36v-1.7h4.36v-6Z" transform="translate(-233.68 -142.63)" style="fill:#fff"/><path d="M478.37,476V457.45h-4.19v-1.79h4.19v-1.82c0-4.07,1.62-7,6.15-7a6.7,6.7,0,0,1,4.06,1.41l-1,1.5a5.57,5.57,0,0,0-3.16-1c-2.57,0-4.06,1.58-4.06,5.15v1.82h6.76v1.79h-6.76V476Z" transform="translate(-233.68 -142.63)" style="fill:#fff"/><path d="M489.25,465.79c0-6.52,4.65-10.67,10.42-10.67s10.41,4.15,10.41,10.67-4.64,10.5-10.41,10.5S489.25,472.31,489.25,465.79Zm18.84,0c0-5.31-3.78-8.76-8.42-8.76s-8.43,3.45-8.43,8.76a8.43,8.43,0,1,0,16.85,0Z" transform="translate(-233.68 -142.63)" style="fill:#fff"/><path d="M531.58,473.14a10.49,10.49,0,0,1-7.47,3.07c-5.77,0-10.54-4-10.54-10.46s4.61-10.46,10.54-10.46a10.66,10.66,0,0,1,7.47,3.07l-1.33,1.29a8.69,8.69,0,0,0-6.14-2.45c-4.65,0-8.55,3-8.55,8.55s3.9,8.55,8.55,8.55a8.68,8.68,0,0,0,6.1-2.53Z" transform="translate(-233.68 -142.63)" style="fill:#fff"/><path d="M552.25,476v-3.69a8.15,8.15,0,0,1-7.3,4c-5.48,0-9.26-3.36-9.26-9.05V455.46h2v11.78c0,4.65,2.87,7.14,7.31,7.1a7.13,7.13,0,0,0,7.18-7.47V455.46h2V476Z" transform="translate(-233.68 -142.63)" style="fill:#fff"/><path d="M573.67,459.23a8.81,8.81,0,0,0-6.4-2.16c-3.19,0-6.26,1.17-6.18,3.78s3.65,3.28,6.22,3.74c3.66.62,8.68,1.24,8.47,6-.12,4.53-4.81,5.73-8.42,5.73s-7.18-1.37-9-4.11l1.5-1.32a9.11,9.11,0,0,0,7.51,3.48c2.49,0,6.27-.66,6.39-3.9.08-3-3.32-3.53-6.68-4.07-4-.66-7.93-1.41-8-5.52s4-5.77,8.13-5.72a10.78,10.78,0,0,1,7.64,2.73Z" transform="translate(-233.68 -142.63)" style="fill:#fff"/><path d="M579.14,465.75a10.31,10.31,0,0,1,10.42-10.58c5.77,0,10.92,3.52,10.13,11.53H581.22a8.06,8.06,0,0,0,8.34,7.6c2.7,0,5.85-1.08,7.39-3.11l1.45,1.16a11.28,11.28,0,0,1-8.84,3.94C583.79,476.29,579.14,472.27,579.14,465.75Zm18.72-.83c0-5.06-3.36-7.89-8.3-7.89a8.2,8.2,0,0,0-8.34,7.89Z" transform="translate(-233.68 -142.63)" style="fill:#fff"/><path d="M624.63,447V476h-2v-4.52a9.66,9.66,0,0,1-8.55,4.85c-5.73,0-10.25-3.77-10.25-10.58s4.56-10.58,10.29-10.58c3.53,0,6.85,1.49,8.51,4.81V447Zm-18.8,18.8c0,5.69,3.78,8.59,8.38,8.59,4.82,0,8.39-3.53,8.39-8.63a8.21,8.21,0,0,0-8.39-8.59C609.61,457.12,605.83,460,605.83,465.75Z" transform="translate(-233.68 -142.63)" style="fill:#fff"/><path d="M640.94,465.79c0-6.52,4.65-10.67,10.42-10.67s10.41,4.15,10.41,10.67-4.64,10.5-10.41,10.5S640.94,472.31,640.94,465.79Zm18.84,0c0-5.31-3.77-8.76-8.42-8.76s-8.43,3.45-8.43,8.76a8.43,8.43,0,1,0,16.85,0Z" transform="translate(-233.68 -142.63)" style="fill:#fff"/><path d="M668.46,455.5v3.65a8.17,8.17,0,0,1,7.3-4c5.48,0,9.26,3.37,9.26,9.05V476h-2V464.21c0-4.65-2.86-7.14-7.3-7.09a7.12,7.12,0,0,0-7.18,7.47V476h-2V455.5Z" transform="translate(-233.68 -142.63)" style="fill:#fff"/><path d="M700.58,465.75A10.31,10.31,0,0,1,711,455.17c5.77,0,10.91,3.52,10.12,11.53H702.65a8.07,8.07,0,0,0,8.35,7.6c2.69,0,5.85-1.08,7.38-3.11l1.46,1.16a11.29,11.29,0,0,1-8.84,3.94C705.23,476.29,700.58,472.27,700.58,465.75Zm18.72-.83c0-5.06-3.36-7.89-8.3-7.89a8.2,8.2,0,0,0-8.35,7.89Z" transform="translate(-233.68 -142.63)" style="fill:#fff"/><path d="M728.51,476V457.45h-4.19v-1.79h4.19v-1.82c0-4.07,1.62-7,6.14-7a6.71,6.71,0,0,1,4.07,1.41l-1,1.5a5.57,5.57,0,0,0-3.15-1c-2.57,0-4.07,1.58-4.07,5.15v1.82h6.77v1.79H730.5V476Z" transform="translate(-233.68 -142.63)" style="fill:#fff"/><path d="M744.16,476V457.45H740v-1.79h4.2v-1.82c0-4.07,1.62-7,6.14-7a6.76,6.76,0,0,1,4.07,1.41l-1,1.5a5.57,5.57,0,0,0-3.15-1c-2.58,0-4.07,1.58-4.07,5.15v1.82h6.76v1.79h-6.76V476Z" transform="translate(-233.68 -142.63)" style="fill:#fff"/><path d="M760,448.82a1.64,1.64,0,0,1-3.28,0A1.64,1.64,0,0,1,760,448.82Zm-2.7,6.59V476h2V455.41Z" transform="translate(-233.68 -142.63)" style="fill:#fff"/><path d="M781.92,473.14a10.49,10.49,0,0,1-7.47,3.07c-5.76,0-10.54-4-10.54-10.46s4.61-10.46,10.54-10.46a10.66,10.66,0,0,1,7.47,3.07l-1.32,1.29a8.71,8.71,0,0,0-6.15-2.45c-4.64,0-8.55,3-8.55,8.55s3.91,8.55,8.55,8.55a8.7,8.7,0,0,0,6.11-2.53Z" transform="translate(-233.68 -142.63)" style="fill:#fff"/><path d="M788.77,448.82a1.64,1.64,0,0,1-3.28,0A1.64,1.64,0,0,1,788.77,448.82Zm-2.7,6.59V476h2V455.41Z" transform="translate(-233.68 -142.63)" style="fill:#fff"/><path d="M792.76,465.75a10.3,10.3,0,0,1,10.41-10.58c5.77,0,10.92,3.52,10.13,11.53H794.83a8.07,8.07,0,0,0,8.34,7.6c2.7,0,5.86-1.08,7.39-3.11l1.45,1.16a11.28,11.28,0,0,1-8.84,3.94C797.4,476.29,792.76,472.27,792.76,465.75Zm18.71-.83c0-5.06-3.36-7.89-8.3-7.89a8.2,8.2,0,0,0-8.34,7.89Z" transform="translate(-233.68 -142.63)" style="fill:#fff"/><path d="M820.56,455.5v3.65a8.19,8.19,0,0,1,7.31-4c5.48,0,9.25,3.37,9.25,9.05V476h-2V464.21c0-4.65-2.86-7.14-7.31-7.09a7.12,7.12,0,0,0-7.18,7.47V476h-2V455.5Z" transform="translate(-233.68 -142.63)" style="fill:#fff"/><path d="M859.24,473.14a10.49,10.49,0,0,1-7.47,3.07c-5.77,0-10.54-4-10.54-10.46s4.61-10.46,10.54-10.46a10.66,10.66,0,0,1,7.47,3.07l-1.32,1.29a8.73,8.73,0,0,0-6.15-2.45c-4.65,0-8.55,3-8.55,8.55s3.9,8.55,8.55,8.55a8.68,8.68,0,0,0,6.1-2.53Z" transform="translate(-233.68 -142.63)" style="fill:#fff"/><path d="M880.91,455.5l-12.49,29.05h-2.16l3.77-8.8-8.21-20.25H864l4.77,12.12,2.41,5.93,2.36-6,5.15-12.08Z" transform="translate(-233.68 -142.63)" style="fill:#fff"/><path d="M887.71,474.76a2.19,2.19,0,0,1-.12.7l-1.66,4.23h-1.79l1.29-3.44a1.54,1.54,0,0,1-1-1.49A1.64,1.64,0,0,1,887.71,474.76Z" transform="translate(-233.68 -142.63)" style="fill:#fff"/><path d="M238.28,505.3V509a8.16,8.16,0,0,1,7.31-4c5.48,0,9.25,3.36,9.25,9.05V525.8h-2V514c0-4.65-2.86-7.14-7.31-7.1a7.13,7.13,0,0,0-7.18,7.47V525.8h-2V505.3Z" transform="translate(-233.68 -142.63)" style="fill:#fff"/><path d="M259.2,515.59c0-6.51,4.65-10.66,10.42-10.66S280,509.08,280,515.59s-4.65,10.5-10.42,10.5S259.2,522.11,259.2,515.59Zm18.84,0c0-5.31-3.77-8.75-8.42-8.75s-8.43,3.44-8.43,8.75a8.43,8.43,0,1,0,16.85,0Z" transform="translate(-233.68 -142.63)" style="fill:#fff"/><path d="M305,525.8h-2.24l-3.32-9-2.49-8-2.57,8-3.33,8.92h-2.24l-7.3-20.5h2.24L290,523.44l6.27-18.14h1.45l6.23,18.14L310,505.3h2.24Z" transform="translate(-233.68 -142.63)" style="fill:#fff"/><path d="M348.18,525.8h-2.24l-3.32-9-2.49-8-2.57,8-3.32,8.92H332l-7.31-20.5h2.24l6.19,18.14,6.26-18.14h1.46l6.22,18.14,6.15-18.14h2.24Z" transform="translate(-233.68 -142.63)" style="fill:#fff"/><path d="M361.46,498.62a1.64,1.64,0,0,1-3.28,0A1.64,1.64,0,0,1,361.46,498.62Zm-2.69,6.6V525.8h2V505.22Z" transform="translate(-233.68 -142.63)" style="fill:#fff"/><path d="M371.3,499.12v6.18h7V507h-7v12.5c0,2.78.58,4.73,3.78,4.73a7.59,7.59,0,0,0,3.15-.83l.71,1.66a9,9,0,0,1-3.86,1c-4.36,0-5.77-2.57-5.77-6.59V507H365v-1.7h4.36v-6Z" transform="translate(-233.68 -142.63)" style="fill:#fff"/><path d="M384.91,496.75v12.37A8.2,8.2,0,0,1,392.3,505c5.73,0,8.59,3.69,8.59,9V525.8h-2V514.06c0-4.23-2-7.1-6.6-7.1-4.32,0-7.3,3.32-7.3,7.6V525.8h-2v-29Z" transform="translate(-233.68 -142.63)" style="fill:#fff"/><path d="M448,525.8V513.52a6.34,6.34,0,0,0-6.56-6.72,6.47,6.47,0,0,0-6.6,6.84V525.8h-2V513.64a6.44,6.44,0,0,0-6.6-6.8c-3.9,0-6.56,2.86-6.56,6.8V525.8h-2V505.3h1.91l0,3.4a7.22,7.22,0,0,1,6.68-3.81c3.11,0,6.39,1.41,7.59,5.06a7.94,7.94,0,0,1,7.6-5.06,8.24,8.24,0,0,1,8.59,8.63V525.8Z" transform="translate(-233.68 -142.63)" style="fill:#fff"/><path d="M471.4,525.8v-3.69a8.17,8.17,0,0,1-7.3,4c-5.48,0-9.26-3.37-9.26-9V505.26h2v11.79c0,4.65,2.86,7.14,7.3,7.09a7.12,7.12,0,0,0,7.18-7.47V505.26h2V525.8Z" transform="translate(-233.68 -142.63)" style="fill:#fff"/><path d="M492.82,509a8.76,8.76,0,0,0-6.39-2.16c-3.2,0-6.27,1.16-6.19,3.78s3.66,3.27,6.23,3.73c3.65.62,8.67,1.25,8.47,6-.13,4.52-4.82,5.73-8.43,5.73s-7.18-1.37-9-4.11L479,520.7a9.09,9.09,0,0,0,7.51,3.49c2.49,0,6.27-.67,6.39-3.91.09-2.94-3.32-3.52-6.68-4.06-4-.67-7.93-1.41-8-5.52s4-5.77,8.14-5.73a10.72,10.72,0,0,1,7.63,2.74Z" transform="translate(-233.68 -142.63)" style="fill:#fff"/><path d="M502.16,498.62a1.64,1.64,0,0,1-3.28,0A1.64,1.64,0,0,1,502.16,498.62Zm-2.7,6.6V525.8h2V505.22Z" transform="translate(-233.68 -142.63)" style="fill:#fff"/><path d="M524.11,522.94a10.45,10.45,0,0,1-7.47,3.07c-5.77,0-10.54-4-10.54-10.46s4.61-10.46,10.54-10.46a10.63,10.63,0,0,1,7.47,3.08l-1.33,1.28a8.69,8.69,0,0,0-6.14-2.45c-4.65,0-8.55,3-8.55,8.55s3.9,8.55,8.55,8.55a8.68,8.68,0,0,0,6.1-2.53Z" transform="translate(-233.68 -142.63)" style="fill:#fff"/><path d="M538.51,515.55A10.31,10.31,0,0,1,548.93,505c5.77,0,10.92,3.53,10.13,11.54H540.59a8.06,8.06,0,0,0,8.34,7.59c2.7,0,5.85-1.08,7.39-3.11l1.45,1.16c-2,2.62-5.56,3.94-8.84,3.94C543.16,526.09,538.51,522.07,538.51,515.55Zm18.72-.83c0-5.06-3.36-7.88-8.3-7.88a8.19,8.19,0,0,0-8.34,7.88Z" transform="translate(-233.68 -142.63)" style="fill:#fff"/><path d="M566.44,525.8V507.25h-4.19v-1.78h4.19v-1.83c0-4.07,1.62-7,6.15-7a6.7,6.7,0,0,1,4.06,1.41l-1,1.49a5.65,5.65,0,0,0-3.16-1c-2.57,0-4.06,1.58-4.06,5.15v1.83h6.76v1.78h-6.76V525.8Z" transform="translate(-233.68 -142.63)" style="fill:#fff"/><path d="M582.09,525.8V507.25H577.9v-1.78h4.19v-1.83c0-4.07,1.62-7,6.14-7A6.71,6.71,0,0,1,592.3,498l-1,1.49a5.62,5.62,0,0,0-3.15-1c-2.57,0-4.07,1.58-4.07,5.15v1.83h6.77v1.78h-6.77V525.8Z" transform="translate(-233.68 -142.63)" style="fill:#fff"/><path d="M594.46,515.55A10.31,10.31,0,0,1,604.88,505c5.76,0,10.91,3.53,10.12,11.54H596.53a8.07,8.07,0,0,0,8.35,7.59c2.69,0,5.85-1.08,7.38-3.11l1.46,1.16a11.27,11.27,0,0,1-8.84,3.94C599.11,526.09,594.46,522.07,594.46,515.55Zm18.72-.83c0-5.06-3.37-7.88-8.3-7.88a8.2,8.2,0,0,0-8.35,7.88Z" transform="translate(-233.68 -142.63)" style="fill:#fff"/><path d="M637.08,522.94a10.45,10.45,0,0,1-7.47,3.07c-5.77,0-10.54-4-10.54-10.46s4.61-10.46,10.54-10.46a10.63,10.63,0,0,1,7.47,3.08l-1.33,1.28a8.69,8.69,0,0,0-6.14-2.45c-4.65,0-8.55,3-8.55,8.55s3.9,8.55,8.55,8.55a8.68,8.68,0,0,0,6.1-2.53Z" transform="translate(-233.68 -142.63)" style="fill:#fff"/><path d="M645.92,499.12v6.18h7V507h-7v12.5c0,2.78.58,4.73,3.78,4.73a7.59,7.59,0,0,0,3.15-.83l.71,1.66a9,9,0,0,1-3.86,1c-4.36,0-5.77-2.57-5.77-6.59V507h-4.36v-1.7h4.36v-6Z" transform="translate(-233.68 -142.63)" style="fill:#fff"/><path d="M671.65,509a8.74,8.74,0,0,0-6.39-2.16c-3.19,0-6.27,1.16-6.18,3.78s3.65,3.27,6.22,3.73c3.66.62,8.68,1.25,8.47,6-.12,4.52-4.81,5.73-8.43,5.73s-7.18-1.37-9-4.11l1.49-1.33a9.12,9.12,0,0,0,7.52,3.49c2.49,0,6.26-.67,6.39-3.91.08-2.94-3.32-3.52-6.68-4.06-4-.67-7.93-1.41-8-5.52s4-5.77,8.13-5.73a10.76,10.76,0,0,1,7.64,2.74Z" transform="translate(-233.68 -142.63)" style="fill:#fff"/><path d="M709.42,505.3v20.5h-2v-4.35a9.62,9.62,0,0,1-8.39,4.69,10.55,10.55,0,0,1,0-21.09,9.32,9.32,0,0,1,8.39,4.73V505.3Zm-18.8,10.25a8.23,8.23,0,0,0,8.38,8.59c11.42,0,11.42-17.14,0-17.14A8.2,8.2,0,0,0,690.62,515.55Z" transform="translate(-233.68 -142.63)" style="fill:#fff"/><path d="M716.93,505.3V509a8.16,8.16,0,0,1,7.31-4c5.47,0,9.25,3.36,9.25,9.05V525.8h-2V514c0-4.65-2.87-7.14-7.31-7.1a7.13,7.13,0,0,0-7.18,7.47V525.8h-2V505.3Z" transform="translate(-233.68 -142.63)" style="fill:#fff"/><path d="M758.48,496.75v29h-2v-4.52a9.66,9.66,0,0,1-8.55,4.86c-5.72,0-10.25-3.78-10.25-10.59S742.25,505,748,505c3.52,0,6.84,1.49,8.5,4.81v-13Zm-18.81,18.8c0,5.69,3.78,8.59,8.39,8.59,4.81,0,8.38-3.52,8.38-8.63a8.21,8.21,0,0,0-8.38-8.59C743.45,506.92,739.67,509.78,739.67,515.55Z" transform="translate(-233.68 -142.63)" style="fill:#fff"/><path d="M795.45,505.3v20.5h-2v-4.35a9.59,9.59,0,0,1-8.38,4.69,10.55,10.55,0,0,1,0-21.09,9.3,9.3,0,0,1,8.38,4.73V505.3Zm-18.8,10.25a8.24,8.24,0,0,0,8.39,8.59c11.41,0,11.41-17.14,0-17.14A8.21,8.21,0,0,0,776.65,515.55Z" transform="translate(-233.68 -142.63)" style="fill:#fff"/><path d="M816.5,525.8v-3.69a8.19,8.19,0,0,1-7.31,4c-5.48,0-9.25-3.37-9.25-9V505.26h2v11.79c0,4.65,2.86,7.14,7.3,7.09a7.12,7.12,0,0,0,7.19-7.47V505.26h2V525.8Z" transform="translate(-233.68 -142.63)" style="fill:#fff"/><path d="M828.53,499.12v6.18h7V507h-7v12.5c0,2.78.58,4.73,3.78,4.73a7.51,7.51,0,0,0,3.15-.83l.71,1.66a9,9,0,0,1-3.86,1c-4.36,0-5.77-2.57-5.77-6.59V507h-4.36v-1.7h4.36v-6Z" transform="translate(-233.68 -142.63)" style="fill:#fff"/><path d="M839.24,515.59c0-6.51,4.65-10.66,10.42-10.66s10.41,4.15,10.41,10.66-4.64,10.5-10.41,10.5S839.24,522.11,839.24,515.59Zm18.84,0c0-5.31-3.77-8.75-8.42-8.75s-8.43,3.44-8.43,8.75a8.43,8.43,0,1,0,16.85,0Z" transform="translate(-233.68 -142.63)" style="fill:#fff"/><path d="M864.76,534.35V505.3h2v4.86a9.77,9.77,0,0,1,8.89-5.15c5.56.21,10,3.94,10,10.54,0,6.89-4.65,10.63-10.42,10.63a9.25,9.25,0,0,1-8.47-5.11v13.28Zm18.8-18.8c0-5.77-3.73-8.59-8.38-8.59s-8.3,3.61-8.3,8.63a8.25,8.25,0,0,0,8.3,8.64C879.83,524.23,883.56,521.32,883.56,515.55Z" transform="translate(-233.68 -142.63)" style="fill:#fff"/><path d="M892.61,496.75v29h-2v-29Z" transform="translate(-233.68 -142.63)" style="fill:#fff"/><path d="M918,505.3v20.5h-2v-4.35a9.59,9.59,0,0,1-8.39,4.69,10.55,10.55,0,0,1,0-21.09,9.31,9.31,0,0,1,8.39,4.73V505.3Zm-18.8,10.25a8.23,8.23,0,0,0,8.38,8.59c11.42,0,11.42-17.14,0-17.14A8.2,8.2,0,0,0,899.21,515.55Z" transform="translate(-233.68 -142.63)" style="fill:#fff"/><path d="M940.17,505.3l-12.49,29.05h-2.16l3.78-8.79-8.22-20.26h2.2l4.77,12.12,2.41,5.94,2.37-6L938,505.3Z" transform="translate(-233.68 -142.63)" style="fill:#fff"/></svg>